#!OML:ASF F:\VICON\USERDATA\INSTALL\rory3\rory3.ASF
:FULLY-SPECIFIED
:DEGREES
661
root 22.8287 17.7999 8.86566 -1.37451 4.4372 5.27709
lowerback 12.9839 -1.04119 -3.78529
upperback 0.870151 -1.89426 0.547901
thorax -6.2256 -0.814578 3.05901
lowerneck -6.99381 -13.8354 -20.0422
upperneck 14.6403 -19.4653 17.0984
head 9.47704 -9.20931 6.52619
rclavicle -2.14687e-014 -7.95139e-016
rhumerus -33.1453 -15.0984 -74.8772
rradius 32.6864
rwrist 10.7758
rhand -16.0522 11.6785
rfingers 7.12502
rthumb 10.1498 -18.0567
lclavicle -2.14687e-014 -7.95139e-016
lhumerus -32.5153 8.42148 79.2947
lradius 33.6924
lwrist -0.919142
lhand -17.007 30.3968
lfingers 7.12502
lthumb 9.22863 60.1748
rfemur -11.7231 4.40985 6.04261
rtibia 41.8069
rfoot -19.7998 -0.0378438
rtoes -5.04958
lfemur -1.95456 -1.46606 -19.6325
ltibia 18.1805
lfoot -11.0965 -4.59311
ltoes -16.9032
662
root 22.8859 17.8039 8.85899 -1.31717 4.57421 5.2896
lowerback 12.9414 -1.13115 -4.01414
upperback 0.92458 -2.04468 0.534609
thorax -6.12474 -0.885635 3.19796
lowerneck -6.95808 -13.8433 -20.1437
upperneck 14.4516 -19.5064 17.3931
head 9.46146 -9.2186 6.63755
rclavicle 1.00386e-014 2.38542e-015
rhumerus -33.1416 -14.915 -75.3614
rradius 32.8404
rwrist 11.0202
rhand -15.8123 11.8542
rfingers 7.12502
rthumb 10.3812 -17.8696
lclavicle 1.00386e-014 2.38542e-015
lhumerus -32.3336 8.62297 79.1524
lradius 34.0088
lwrist -0.919791
lhand -17.007 30.3968
lfingers 7.12502
lthumb 9.22863 60.1748
rfemur -12.1809 3.86577 6.95062
rtibia 42.3341
rfoot -20.6303 1.00063
rtoes -6.45116
lfemur -2.26135 -1.47584 -19.8583
ltibia 18.63
lfoot -11.2885 -4.70312
ltoes -16.4617
663
root 22.9399 17.8102 8.85575 -1.269 4.70689 5.08692
lowerback 12.8262 -1.2121 -4.03753
upperback 1.00051 -2.14647 0.568929
thorax -5.96913 -0.939923 3.25911
lowerneck -6.99977 -13.9119 -20.0393
upperneck 14.2982 -19.5937 17.4221
head 9.42669 -9.2513 6.6102
rclavicle 1.22253e-014 -7.15625e-015
rhumerus -33.1764 -14.6825 -75.8486
rradius 33.0685
rwrist 11.1239
rhand -15.6205 11.8393
rfingers 7.12502
rthumb 10.5662 -17.8751
lclavicle 1.22253e-014 -7.15625e-015
lhumerus -32.0624 8.761 78.9446
lradius 34.3279
lwrist -0.922611
lhand -17.007 30.3968
lfingers 7.12502
lthumb 9.22863 60.1748
rfemur -12.6464 3.51407 8.15493
rtibia 42.8249
rfoot -21.4909 2.01075
rtoes -7.75717
lfemur -2.50282 -1.60505 -19.8444
ltibia 18.9672
lfoot -11.4599 -4.622
ltoes -16.8026
664
root 22.9916 17.817 8.85823 -1.28976 4.77254 4.81649
lowerback 12.7916 -1.23233 -4.02329
upperback 1.0025 -2.16564 0.633291
thorax -5.9441 -0.949671 3.32108
lowerneck -6.98829 -14.0298 -19.925
upperneck 14.3555 -19.7616 17.2956
head 9.45028 -9.33153 6.51563
rclavicle -1.27222e-014 1.03368e-014
rhumerus -33.4007 -14.4412 -76.2063
rradius 33.2662
rwrist 11.2351
rhand -15.3887 11.9234
rfingers 7.12502
rthumb 10.7898 -17.7795
lclavicle -1.27222e-014 1.03368e-014
lhumerus -32.0297 8.77923 78.6253
lradius 34.5803
lwrist -0.709106
lhand -17.007 30.3968
lfingers 7.12502
lthumb 9.22863 60.1748
rfemur -13.0177 3.22173 9.47082
rtibia 43.2687
rfoot -22.3631 3.53186
rtoes -8.92223
lfemur -2.6212 -1.82286 -19.7565
ltibia 19.2665
lfoot -11.6472 -4.42703
ltoes -16.0514
665
root 23.0397 17.8181 8.85328 -1.31306 4.88273 4.65893
lowerback 12.9219 -1.24862 -4.14756
upperback 0.931851 -2.20844 0.692172
thorax -6.08125 -0.961606 3.46768
lowerneck -6.82773 -14.116 -19.9498
upperneck 14.4674 -19.9264 17.2807
head 9.49379 -9.41817 6.49177
rclavicle 4.72611e-014 1.19271e-014
rhumerus -33.7618 -14.0393 -76.5175
rradius 33.5197
rwrist 11.1833
rhand -15.2689 12.0385
rfingers 7.12502
rthumb 10.9054 -17.6583
lclavicle 4.72611e-014 1.19271e-014
lhumerus -32.0223 8.70264 78.425
lradius 34.7137
lwrist -0.410738
lhand -17.007 30.3968
lfingers 7.12502
lthumb 9.22863 60.1748
rfemur -13.3295 2.80266 10.7068
rtibia 43.6404
rfoot -23.0328 4.94448
rtoes -10.6828
lfemur -2.77821 -2.07267 -19.7756
ltibia 19.6153
lfoot -11.8168 -4.21901
ltoes -15.2941
